<?xml version="1.0" encoding="UTF-8" ?>
<!DOCTYPE svg PUBLIC "-//W3C//DTD SVG 1.1//EN" "http://www.w3.org/Graphics/SVG/1.1/DTD/svg11.dtd">
<svg width="81pt" height="78pt" viewBox="0 0 81 78" version="1.1" xmlns="http://www.w3.org/2000/svg">
<g id="#1b98baff">
<path fill="#1b98ba" opacity="1.00" d=" M 42.48 2.95 C 47.42 5.32 52.13 10.10 51.84 15.95 C 51.87 19.61 51.82 23.56 49.68 26.71 C 45.73 32.95 41.67 39.19 36.51 44.52 C 31.30 50.68 25.35 56.37 21.55 63.57 C 19.93 66.41 19.74 69.72 19.38 72.89 C 14.14 70.81 10.37 65.55 9.58 60.05 C 8.94 52.42 14.35 46.34 18.93 40.92 C 25.09 33.41 33.55 28.03 38.66 19.64 C 42.33 14.92 44.41 8.84 42.48 2.95 Z" />
<path fill="#1b98ba" opacity="1.00" d=" M 54.36 50.45 C 59.76 48.42 66.31 52.30 66.96 58.06 C 67.96 63.43 63.48 69.00 57.99 69.03 C 52.88 69.50 48.05 65.09 47.95 59.99 C 47.62 55.84 50.42 51.74 54.36 50.45 Z" />
</g>
</svg>
