<?xml version="1.0" encoding="UTF-8"?>
<svg version="1.1" viewBox="0 0 2164 292" xmlns="http://www.w3.org/2000/svg">
<g fill="#1b98ba">
<path d="m153.3 0h0.34c-0.02 0.13-0.05 0.38-0.07 0.5 13.33 6.35 25.31 16.29 32.69 29.21 4.18 7.35 6.42 15.81 6.13 24.28-0.01 14.72 0.03 30.49-7.89 43.48-14.45 22.81-29.13 45.63-46.92 66.03-4.17 4.88-8.77 9.36-12.88 14.28-18.39 21.36-38.51 41.52-53.32 65.67-4.2 7.06-8.58 14.2-10.55 22.27-2.4 8.59-2.67 17.54-4.21 26.28h-0.42l0.4-0.44c-21.27-8.48-36.39-29.2-40.34-51.47-1.92-13.46 1.64-27.18 7.74-39.16 8.58-16.9 21.4-31.04 33.49-45.46 25.18-29.4 58.53-51.51 79.24-84.74 7.89-10.51 14.55-22.2 17.58-35.1 2.98-11.69 2.42-24.09-1.01-35.63z"/>
<path d="m208.48 196.58c21.27-4.3 44.74 11.65 47.03 33.56 4.06 22.19-14.78 45.41-37.44 45.55-21.19 2-41.6-16.39-42.03-37.63-1.63-19.43 13.36-38.13 32.44-41.48z"/>
</g>
<g>
<path d="m1765.6 37.78c10.41-1.4 20.96-0.54 31.44-0.78 76.01 0 152.02 0.01 228.03 0 9.18-0.24 18.47 0.81 27.16 3.9 21.91 7.43 39.47 26.26 45.35 48.64 3.57 12.49 2.18 25.58 2.46 38.39 0.21 15.39-4.69 30.81-13.88 43.18-11.67 15.96-30.26 26.66-49.97 28.52-8.02 0.69-16.07 0.24-24.1 0.37h-222.07c-10.36-0.09-20.89 0.63-31-2.07-24.14-5.75-44.33-25.16-51.11-49.02-3.97-12.59-2.65-25.91-2.87-38.9-0.17-9.8 1.52-19.67 5.25-28.75 9.13-22.87 30.9-40.08 55.31-43.48m6.66 9.5c-24.33 1.21-46.71 18.63-54.03 41.83-4.2 11.83-2.86 24.53-3.08 36.83-0.19 8.68 1.08 17.44 4.37 25.51 8.63 22.36 31.48 38.26 55.48 38.38 84.34 0.08 168.68 0.02 253.03 0.04 11.26 0.1 22.6-2.81 32.22-8.72 14.14-8.33 24.5-22.7 28.12-38.7 2.29-9.64 1.35-19.62 1.56-29.43 0.18-8.05-0.45-16.21-3.07-23.87-5.52-17.16-19.09-31.47-35.93-37.89-7.88-3.12-16.41-4.32-24.86-4.13-84.6 0.11-169.21-0.2-253.81 0.15z"/>
<path d="m419.08 50c10.06-0.04 20.12 0.07 30.18-0.06 29.01 70.62 57.68 141.38 86.57 212.05-10.59 0.02-21.18 0.01-31.77 0.01-8.13-21.6-16.51-43.1-24.44-64.77-29.58-0.44-59.18 0.04-88.76-0.24-8.09 21.59-15.59 43.42-23.59 65.05-9.86-0.09-19.72-0.01-29.57-0.05 27.12-70.66 54.23-141.33 81.38-211.99m-20.43 124.99c24.13 0.02 48.27 0.01 72.4 0.01-12.38-32.67-24.73-65.35-37.17-98-11.76 32.66-23.49 65.33-35.23 97.99z"/>
<path d="m556.06 50.01c9.12-0.02 18.25-0.01 27.38 0 0 70.68 0 141.36-0.01 212.04-9.12 0.02-18.24 0.02-27.36 0.01-0.02-70.69 0-141.37-0.01-212.05z"/>
<path d="m720.18 50.01c9.08-0.02 18.17-0.01 27.25-0.01 0.01 70.69 0.01 141.37 0 212.05-9.08 0.01-18.16 0.02-27.24 0-0.03-6.08 0.02-12.15-0.03-18.22-8.73 10.71-20.77 19.3-34.65 21.46-16.78 2.44-35.19-1.15-48.11-12.64-13.22-11.68-20.16-28.94-22.65-46.09-2.36-17.54-1.99-35.71 2.96-52.79 4.78-16.61 15.32-31.85 30.25-40.83 14.73-8.86 33.21-9.91 49.53-5.33 8.41 2.31 15.89 6.99 22.69 12.33 0.01-23.31 0.01-46.62 0-69.93m-69.63 93.5c-7.1 12.18-8.7 26.64-9.01 40.48-0.13 13.03 0.77 26.44 5.83 38.61 3.53 8.44 9.68 16.25 18.3 19.85 11.05 4.58 24.1 2.63 34.08-3.68 8.2-5.25 15.23-12.48 20.37-20.71 0.16-24.38 0-48.76 0.08-73.14-11.27-12.57-28.24-20.75-45.34-18.54-10.36 1.22-19.19 8.28-24.31 17.13z"/>
<path d="m952.06 50.01c9.12-0.02 18.25-0.01 27.38-0.01 0.02 25.44-0.04 50.88 0.03 76.31 6.21-6.5 12.92-12.81 21.26-16.5 13.91-6.46 30.31-6.08 44.67-1.3 15.13 5.1 26.6 17.78 32.83 32.18 7.18 16.36 8.69 34.62 7.75 52.29-1 17.25-5.6 34.84-16.29 48.71-8.12 10.71-19.55 19.2-32.71 22.44-19.87 4.93-42.51 0.48-57.53-13.89-0.02 3.94-0.01 7.87-0.02 11.81-9.12 0.02-18.24 0.02-27.36 0.01-0.02-70.69 0-141.37-0.01-212.05m53.94 79.03c-11.04 4.7-19.65 13.7-26.38 23.42-0.39 24.57-0.14 49.21-0.12 73.82 9.23 9.9 21.62 17.42 35.35 18.46 9.5 1.13 19.67-1.35 26.73-8.03 10.2-9.34 14.12-23.41 15.59-36.72 1.3-13.32 1.21-26.89-1.46-40.04-2.19-10.34-6.68-20.81-15.19-27.5-9.65-7.61-23.47-8.06-34.52-3.41z"/>
<path d="m1802.2 71.01c2.69-0.02 5.4-0.02 8.13 0-0.01 12.38 0.02 24.76-0.02 37.14 2.54-4.57 6.2-8.93 11.42-10.42 5.93-1.64 13.23-0.78 17.42 4.14 3.98 4.73 4.8 11.2 4.96 17.16 0.07 12.01 0.02 24.02 0.03 36.02-2.72 0.02-5.42 0.02-8.11 0.01-0.04-11.03 0.01-22.05-0.02-33.07-0.12-4.64-0.61-9.67-3.59-13.44-3.77-4.58-11.26-4.52-15.64-0.87-4.55 3.63-6.55 9.62-6.45 15.3-0.01 10.69 0.01 21.38 0 32.07-2.73 0.03-5.43 0.02-8.12-0.01-0.01-28.01 0-56.02-0.01-84.03z"/>
<path d="m1770.8 83.95c2.68-1.03 5.4-2.03 8.13-3.01 0.01 5.69-0.02 11.37 0.01 17.05 4.23 0.04 8.47-0.05 12.71 0.07-0.05 2.64-0.06 5.29-0.02 7.93-4.24 0.15-8.47 0.04-12.69 0.08-0.02 10.63-0.02 21.26-0.01 31.88 0.1 2.93 0.22 6.36 2.51 8.51 2.96 2.38 7.26 1.67 10.26-0.32-0.08 2.75-0.11 5.49-0.14 8.24-4.61 2.07-10.3 2.43-14.78-0.12-4.48-2.7-5.83-8.34-5.96-13.22-0.06-11.66 0-23.31-0.02-34.97-2.93-0.01-5.84-0.01-8.74-0.01-0.03-2.68-0.03-5.37-0.01-8.05 2.9 0 5.82-0.02 8.76-0.02-0.02-4.68-0.01-9.36-0.01-14.04z"/>
<path d="m1873.1 98.11c7.56-2.59 17.07-0.87 22.01 5.8 5.5 7.1 5.79 16.53 5.68 25.12-11.91 0.1-23.82-0.03-35.73 0.06 0.18 6.56 2.4 13.96 8.68 17.13 7.77 3.77 17.14 1.06 23.55-4.19-0.01 2.93 0.02 5.87-0.1 8.81-6.96 4.96-16.17 6.33-24.38 4.27-7.85-2.1-13.16-9.43-14.88-17.08-1.69-7.5-1.8-15.49 0.32-22.91 2.19-7.4 7.39-14.36 14.85-17.01m-1.23 9.71c-4 3.2-5.99 8.23-6.68 13.18 9.08 0 18.18 0.01 27.27-0.01-0.22-4.17-0.82-8.64-3.61-11.95-4.03-5.02-12.18-5.23-16.98-1.22z"/>
<path d="m1921.3 107.55c2.96-5.49 8.07-10.44 14.67-10.52 7.3-0.9 13.76 4.93 15.46 11.75 2.39-4.48 5.63-8.96 10.62-10.73 6.03-2.15 13.79-1.28 18.07 3.88 4.04 5.04 4.71 11.79 4.82 18.03 0.05 11.7 0.01 23.4 0.01 35.1-2.72 0.01-5.42 0.01-8.11-0.01-0.05-11.01 0.04-22.03-0.04-33.05-0.15-4.44-0.35-9.16-2.75-13.04-3.3-4.83-11.17-5.26-15.2-1.12-4.03 3.9-5.81 9.65-5.71 15.16 0 10.68 0.01 21.37 0 32.06-2.72 0.01-5.43 0.01-8.11 0-0.03-11.02 0-22.04-0.01-33.06-0.09-4.47-0.4-9.29-3.07-13.05-3.39-4.72-11.06-5.25-15.19-1.25-3.85 3.62-5.35 9.06-5.41 14.2-0.05 11.05 0 22.1-0.02 33.15-2.73 0.03-5.43 0.02-8.12-0.01-0.01-19.01 0-38.02-0.01-57.03 2.7-0.02 5.4-0.02 8.13 0 0 3.18-0.01 6.36-0.03 9.54z"/>
<path d="m2011 98.98c7.67-3.66 18.1-2.45 23.66 4.37 5.92 7.11 6.27 16.89 6.13 25.71-11.92 0.03-23.82-0.04-35.73 0.03 0.18 6.54 2.39 13.93 8.64 17.11 7.77 3.8 17.19 1.1 23.6-4.19-0.02 2.92-0.02 5.84-0.07 8.76-6.74 4.94-15.67 6.27-23.72 4.53-6.75-1.56-12.02-7.04-14.36-13.41-2.64-7.01-2.95-14.73-1.95-22.09 1.22-8.48 5.97-16.88 13.8-20.82m0.83 8.87c-3.96 3.21-5.97 8.21-6.63 13.15 9.08-0.01 18.17 0.01 27.26-0.01-0.22-4.17-0.82-8.63-3.6-11.94-4.04-5.04-12.24-5.25-17.03-1.2z"/>
<path d="m828.91 107.69c14.34-3.77 29.72-3.62 44.02 0.23 17.52 4.73 32.56 17.41 40.43 33.72 7.72 15.56 9.23 33.29 8.88 50.41-38.49 0.03-76.99 0-115.49 0.02 0.73 10.29 2.61 20.73 7.46 29.94 5.91 11.33 17.16 19.77 29.77 22.09 13.21 2.47 27.7-0.33 38.32-8.81 5.51-4.4 8.56-11.31 8.84-18.29 9.41 0 18.82-0.01 28.24 0.01-1.68 13.55-8.41 26.63-19.5 34.81-16.88 12.92-39.34 16.04-59.96 13.31-15.78-2.05-30.96-9.36-41.76-21.14-12.21-12.9-18.07-30.6-19.36-48.06-1.29-17.68 0.26-36.08 7.85-52.31 8.03-17.31 23.73-31.04 42.26-35.93m-4.56 27.6c-10.64 8.7-15.16 22.53-17 35.71 28.69-0.01 57.37 0.01 86.06-0.01-1.52-9.66-4.16-19.42-9.74-27.59-6.07-9.01-15.97-15.45-26.79-16.86-11.43-1.77-23.71 1.08-32.53 8.75z"/>
<path d="m1127.4 119.43c11.71-10.09 27.59-13.26 42.6-14.2 16.58-0.81 34 0.14 49.05 7.84 6.19 3.09 11.7 7.75 15.05 13.88 6.12 10.94 7.28 23.81 7.38 36.11 0.02 33 0.01 66 0 99-9.08 0.01-18.16 0.01-27.24 0-0.03-5.22 0.01-10.43-0.02-15.64-17.14 16.38-42.29 22.03-65.31 18.71-13.75-2.07-27.07-9.49-34.63-21.37-6.55-10.28-7.26-23.32-4.46-34.93 2.31-9.56 8.27-18.04 16.18-23.83 10.83-7.98 24.06-11.85 37.15-14.17 16.85-3 34.02-2.93 51.07-2.83-0.22-8.64 0.04-17.46-2.18-25.87-3.18-9.66-13.57-14.51-23.06-15.41-12.5-1.23-26.05-1.4-37.37 4.8-7.44 3.97-11.38 12.33-11.66 20.53-9.07 0.02-18.15 0.02-27.22 0 0.66-12.15 5.2-24.59 14.67-32.62m40.6 71c-10.28 2.08-21.29 6.05-27.4 15.14-5.99 9.37-6.03 23.51 2.48 31.41 7.81 6.98 18.91 8.41 28.99 7.86 15.86-1.12 31.78-8.54 41.34-21.5 1.13-1.2 0.76-2.89 0.85-4.38-0.06-10.3-0.01-20.59-0.03-30.89-15.42 0.12-31.02-0.76-46.23 2.36z"/>
<path d="m1330.3 109.38c9.26-5.08 20.28-5.15 30.42-3.23-0.04 9.2 0.04 18.4-0.04 27.6-7.86-1.78-16.12-2.32-24.08-0.97-10.68 2.11-19.54 9.38-25.95 17.89-0.88 1.32-2.35 2.52-2.24 4.25-0.03 35.71 0 71.42-0.02 107.14-9.12 0.01-18.25 0.01-27.36 0-0.02-51.02-0.01-102.04-0.01-153.05 9.12-0.02 18.25-0.01 27.37-0.01 0 7.05 0.02 14.1-0.01 21.14 5.85-8.23 12.79-16.09 21.92-20.76z"/>
<path d="m1389.9 119.81c11.98-10.61 28.5-13.77 44.01-14.64 17.63-0.75 36.43 0.52 51.81 10.05 7.2 4.26 12.13 11.54 14.75 19.38 3.21 9.43 3.93 19.48 3.95 29.37 0 32.7 0.01 65.39-0.01 98.09-9.08 0-18.16 0.03-27.24-0.02-0.02-5.21 0-10.43-0.02-15.64-13.85 13.25-33.15 19.63-52.11 19.61-14.76 0.45-30.23-3.73-41.09-14.13-6.53-6-10.98-14.22-12.21-23.01-1.85-13.01 1.05-27.2 9.95-37.19 9.29-10.57 22.91-16 36.31-19.2 19.35-4.59 39.37-4.64 59.15-4.48-0.13-8.03-0.12-16.13-1.67-24.03-1.75-8.36-9.48-14.17-17.45-16.07-9.3-2.23-19.03-2.26-28.48-1.16-7.92 1.11-16.28 3.82-21.46 10.26-3.46 4.22-4.83 9.71-5.21 15.06-9.07 0.01-18.15 0.01-27.22-0.01 0.66-11.96 5.04-24.2 14.24-32.24m36.42 71.67c-8.28 2.2-16.73 5.92-22 12.97-7.27 9.9-7.08 26.2 3.33 33.89 9.15 6.75 21.3 7.41 32.2 5.99 14.52-2.35 29.02-9.72 37.24-22.25 0.18-11.33 0.02-22.68 0.07-34.01-16.97 0.1-34.25-0.91-50.84 3.41z"/>
<path d="m1571.4 127.88c10.6-12.08 25.13-21.7 41.54-22.73 11.17-0.62 22.84 0.67 32.85 5.98 7.24 3.81 13.1 10.02 16.73 17.32 5.04 10.04 6.5 21.45 6.57 32.56-0.01 33.68 0.01 67.36-0.01 101.04-9.13 0.02-18.25 0.02-27.36 0-0.02-29.35-0.01-58.71-0.01-88.06-0.13-11.14 0.88-22.8-3.53-33.32-2.17-5.43-6.75-9.79-12.29-11.64-9.48-3.19-20.17-2.53-29.18 1.81-9.92 4.71-18.16 12.36-25.12 20.73-0.45 36.79-0.06 73.66-0.2 110.48-9.12 0.02-18.25 0.02-27.36 0.01-0.02-51.02-0.01-102.04-0.01-153.05 9.12-0.02 18.25-0.01 27.37 0 0.01 6.29 0 12.58 0.01 18.87z"/>
</g>
</svg>
