<?xml version="1.0" encoding="UTF-8" ?>
<!DOCTYPE svg PUBLIC "-//W3C//DTD SVG 1.1//EN" "http://www.w3.org/Graphics/SVG/1.1/DTD/svg11.dtd">
<svg width="2164pt" height="292pt" viewBox="0 0 2164 292" version="1.1" xmlns="http://www.w3.org/2000/svg">
<g id="#1b98baff">
<path fill="#1b98ba" opacity="1.00" d=" M 153.30 0.00 L 153.64 0.00 C 153.62 0.13 153.59 0.38 153.57 0.50 C 166.90 6.85 178.88 16.79 186.26 29.71 C 190.44 37.06 192.68 45.52 192.39 53.99 C 192.38 68.71 192.42 84.48 184.50 97.47 C 170.05 120.28 155.37 143.10 137.58 163.50 C 133.41 168.38 128.81 172.86 124.70 177.78 C 106.31 199.14 86.19 219.30 71.38 243.45 C 67.18 250.51 62.80 257.65 60.83 265.72 C 58.43 274.31 58.16 283.26 56.62 292.00 L 56.20 292.00 C 56.30 291.89 56.50 291.67 56.60 291.56 C 35.33 283.08 20.21 262.36 16.26 240.09 C 14.34 226.63 17.90 212.91 24.00 200.93 C 32.58 184.03 45.40 169.89 57.49 155.47 C 82.67 126.07 116.02 103.96 136.73 70.73 C 144.62 60.22 151.28 48.53 154.31 35.63 C 157.29 23.94 156.73 11.54 153.30 0.00 Z" />
<path fill="#1b98ba" opacity="1.00" d=" M 208.48 196.58 C 229.75 192.28 253.22 208.23 255.51 230.14 C 259.57 252.33 240.73 275.55 218.07 275.69 C 196.88 277.69 176.47 259.30 176.04 238.06 C 174.41 218.63 189.40 199.93 208.48 196.58 Z" />
</g>
<g id="#000000ff">
<path fill="#000000" opacity="1.00" d=" M 1765.56 37.78 C 1775.97 36.38 1786.52 37.24 1797.00 37.00 C 1873.01 37.00 1949.02 37.01 2025.03 37.00 C 2034.21 36.76 2043.50 37.81 2052.19 40.90 C 2074.10 48.33 2091.66 67.16 2097.54 89.54 C 2101.11 102.03 2099.72 115.12 2100.00 127.93 C 2100.21 143.32 2095.31 158.74 2086.12 171.11 C 2074.45 187.07 2055.86 197.77 2036.15 199.63 C 2028.13 200.32 2020.08 199.87 2012.05 200.00 C 1938.03 200.00 1864.00 200.00 1789.98 200.00 C 1779.62 199.91 1769.09 200.63 1758.98 197.93 C 1734.84 192.18 1714.65 172.77 1707.87 148.91 C 1703.90 136.32 1705.22 123.00 1705.00 110.01 C 1704.83 100.21 1706.52 90.34 1710.25 81.26 C 1719.38 58.39 1741.15 41.18 1765.56 37.78 M 1772.22 47.28 C 1747.89 48.49 1725.51 65.91 1718.19 89.11 C 1713.99 100.94 1715.33 113.64 1715.11 125.94 C 1714.92 134.62 1716.19 143.38 1719.48 151.45 C 1728.11 173.81 1750.96 189.71 1774.96 189.83 C 1859.30 189.91 1943.64 189.85 2027.99 189.87 C 2039.25 189.97 2050.59 187.06 2060.21 181.15 C 2074.35 172.82 2084.71 158.45 2088.33 142.45 C 2090.62 132.81 2089.68 122.83 2089.89 113.02 C 2090.07 104.97 2089.44 96.81 2086.82 89.15 C 2081.30 71.99 2067.73 57.68 2050.89 51.26 C 2043.01 48.14 2034.48 46.94 2026.03 47.13 C 1941.43 47.24 1856.82 46.93 1772.22 47.28 Z" />
<path fill="#000000" opacity="1.00" d=" M 419.08 50.00 C 429.14 49.96 439.20 50.07 449.26 49.94 C 478.27 120.56 506.94 191.32 535.83 261.99 C 525.24 262.01 514.65 262.00 504.06 262.00 C 495.93 240.40 487.55 218.90 479.62 197.23 C 450.04 196.79 420.44 197.27 390.86 196.99 C 382.77 218.58 375.27 240.41 367.27 262.04 C 357.41 261.95 347.55 262.03 337.70 261.99 C 364.82 191.33 391.93 120.66 419.08 50.00 M 398.65 174.99 C 422.78 175.01 446.92 175.00 471.05 175.00 C 458.67 142.33 446.32 109.65 433.88 77.00 C 422.12 109.66 410.39 142.33 398.65 174.99 Z" />
<path fill="#000000" opacity="1.00" d=" M 556.06 50.01 C 565.18 49.99 574.31 50.00 583.44 50.01 C 583.44 120.69 583.44 191.37 583.43 262.05 C 574.31 262.07 565.19 262.07 556.07 262.06 C 556.05 191.37 556.07 120.69 556.06 50.01 Z" />
<path fill="#000000" opacity="1.00" d=" M 720.18 50.01 C 729.26 49.99 738.35 50.00 747.43 50.00 C 747.44 120.69 747.44 191.37 747.43 262.05 C 738.35 262.06 729.27 262.07 720.19 262.05 C 720.16 255.97 720.21 249.90 720.16 243.83 C 711.43 254.54 699.39 263.13 685.51 265.29 C 668.73 267.73 650.32 264.14 637.40 252.65 C 624.18 240.97 617.24 223.71 614.75 206.56 C 612.39 189.02 612.76 170.85 617.71 153.77 C 622.49 137.16 633.03 121.92 647.96 112.94 C 662.69 104.08 681.17 103.03 697.49 107.61 C 705.90 109.92 713.38 114.60 720.18 119.94 C 720.19 96.63 720.19 73.32 720.18 50.01 M 650.55 143.51 C 643.45 155.69 641.85 170.15 641.54 183.99 C 641.41 197.02 642.31 210.43 647.37 222.60 C 650.90 231.04 657.05 238.85 665.67 242.45 C 676.72 247.03 689.77 245.08 699.75 238.77 C 707.95 233.52 714.98 226.29 720.12 218.06 C 720.28 193.68 720.12 169.30 720.20 144.92 C 708.93 132.35 691.96 124.17 674.86 126.38 C 664.50 127.60 655.67 134.66 650.55 143.51 Z" />
<path fill="#000000" opacity="1.00" d=" M 952.06 50.01 C 961.18 49.99 970.31 50.00 979.44 50.00 C 979.46 75.44 979.40 100.88 979.47 126.31 C 985.68 119.81 992.39 113.50 1000.73 109.81 C 1014.64 103.35 1031.04 103.73 1045.40 108.51 C 1060.53 113.61 1072.00 126.29 1078.23 140.69 C 1085.41 157.05 1086.92 175.31 1085.98 192.98 C 1084.98 210.23 1080.38 227.82 1069.69 241.69 C 1061.57 252.40 1050.14 260.89 1036.98 264.13 C 1017.11 269.06 994.47 264.61 979.45 250.24 C 979.43 254.18 979.44 258.11 979.43 262.05 C 970.31 262.07 961.19 262.07 952.07 262.06 C 952.05 191.37 952.07 120.69 952.06 50.01 M 1006.00 129.04 C 994.96 133.74 986.35 142.74 979.62 152.46 C 979.23 177.03 979.48 201.67 979.50 226.28 C 988.73 236.18 1001.12 243.70 1014.85 244.74 C 1024.35 245.87 1034.52 243.39 1041.58 236.71 C 1051.78 227.37 1055.70 213.30 1057.17 199.99 C 1058.47 186.67 1058.38 173.10 1055.71 159.95 C 1053.52 149.61 1049.03 139.14 1040.52 132.45 C 1030.87 124.84 1017.05 124.39 1006.00 129.04 Z" />
<path fill="#000000" opacity="1.00" d=" M 1802.18 71.01 C 1804.87 70.99 1807.58 70.99 1810.31 71.01 C 1810.30 83.39 1810.33 95.77 1810.29 108.15 C 1812.83 103.58 1816.49 99.22 1821.71 97.73 C 1827.64 96.09 1834.94 96.95 1839.13 101.87 C 1843.11 106.60 1843.93 113.07 1844.09 119.03 C 1844.16 131.04 1844.11 143.05 1844.12 155.05 C 1841.40 155.07 1838.70 155.07 1836.01 155.06 C 1835.97 144.03 1836.02 133.01 1835.99 121.99 C 1835.87 117.35 1835.38 112.32 1832.40 108.55 C 1828.63 103.97 1821.14 104.03 1816.76 107.68 C 1812.21 111.31 1810.21 117.30 1810.31 122.98 C 1810.30 133.67 1810.32 144.36 1810.31 155.05 C 1807.58 155.08 1804.88 155.07 1802.19 155.04 C 1802.18 127.03 1802.19 99.02 1802.18 71.01 Z" />
<path fill="#000000" opacity="1.00" d=" M 1770.81 83.95 C 1773.49 82.92 1776.21 81.92 1778.94 80.94 C 1778.95 86.63 1778.92 92.31 1778.95 97.99 C 1783.18 98.03 1787.42 97.94 1791.66 98.06 C 1791.61 100.70 1791.60 103.35 1791.64 105.99 C 1787.40 106.14 1783.17 106.03 1778.95 106.07 C 1778.93 116.70 1778.93 127.33 1778.94 137.95 C 1779.04 140.88 1779.16 144.31 1781.45 146.46 C 1784.41 148.84 1788.71 148.13 1791.71 146.14 C 1791.63 148.89 1791.60 151.63 1791.57 154.38 C 1786.96 156.45 1781.27 156.81 1776.79 154.26 C 1772.31 151.56 1770.96 145.92 1770.83 141.04 C 1770.77 129.38 1770.83 117.73 1770.81 106.07 C 1767.88 106.06 1764.97 106.06 1762.07 106.06 C 1762.04 103.38 1762.04 100.69 1762.06 98.01 C 1764.96 98.01 1767.88 97.99 1770.82 97.99 C 1770.80 93.31 1770.81 88.63 1770.81 83.95 Z" />
<path fill="#000000" opacity="1.00" d=" M 1873.13 98.11 C 1880.69 95.52 1890.20 97.24 1895.14 103.91 C 1900.64 111.01 1900.93 120.44 1900.82 129.03 C 1888.91 129.13 1877.00 129.00 1865.09 129.09 C 1865.27 135.65 1867.49 143.05 1873.77 146.22 C 1881.54 149.99 1890.91 147.28 1897.32 142.03 C 1897.31 144.96 1897.34 147.90 1897.22 150.84 C 1890.26 155.80 1881.05 157.17 1872.84 155.11 C 1864.99 153.01 1859.68 145.68 1857.96 138.03 C 1856.27 130.53 1856.16 122.54 1858.28 115.12 C 1860.47 107.72 1865.67 100.76 1873.13 98.11 M 1871.90 107.82 C 1867.90 111.02 1865.91 116.05 1865.22 121.00 C 1874.30 121.00 1883.40 121.01 1892.49 120.99 C 1892.27 116.82 1891.67 112.35 1888.88 109.04 C 1884.85 104.02 1876.70 103.81 1871.90 107.82 Z" />
<path fill="#000000" opacity="1.00" d=" M 1921.28 107.55 C 1924.24 102.06 1929.35 97.11 1935.95 97.03 C 1943.25 96.13 1949.71 101.96 1951.41 108.78 C 1953.80 104.30 1957.04 99.82 1962.03 98.05 C 1968.06 95.90 1975.82 96.77 1980.10 101.93 C 1984.14 106.97 1984.81 113.72 1984.92 119.96 C 1984.97 131.66 1984.93 143.36 1984.93 155.06 C 1982.21 155.07 1979.51 155.07 1976.82 155.05 C 1976.77 144.04 1976.86 133.02 1976.78 122.00 C 1976.63 117.56 1976.43 112.84 1974.03 108.96 C 1970.73 104.13 1962.86 103.70 1958.83 107.84 C 1954.80 111.74 1953.02 117.49 1953.12 123.00 C 1953.12 133.68 1953.13 144.37 1953.12 155.06 C 1950.40 155.07 1947.69 155.07 1945.01 155.06 C 1944.98 144.04 1945.01 133.02 1945.00 122.00 C 1944.91 117.53 1944.60 112.71 1941.93 108.95 C 1938.54 104.23 1930.87 103.70 1926.74 107.70 C 1922.89 111.32 1921.39 116.76 1921.33 121.90 C 1921.28 132.95 1921.33 144.00 1921.31 155.05 C 1918.58 155.08 1915.88 155.07 1913.19 155.04 C 1913.18 136.03 1913.19 117.02 1913.18 98.01 C 1915.88 97.99 1918.58 97.99 1921.31 98.01 C 1921.31 101.19 1921.30 104.37 1921.28 107.55 Z" />
<path fill="#000000" opacity="1.00" d=" M 2011.03 98.98 C 2018.70 95.32 2029.13 96.53 2034.69 103.35 C 2040.61 110.46 2040.96 120.24 2040.82 129.06 C 2028.90 129.09 2017.00 129.02 2005.09 129.09 C 2005.27 135.63 2007.48 143.02 2013.73 146.20 C 2021.50 150.00 2030.92 147.30 2037.33 142.01 C 2037.31 144.93 2037.31 147.85 2037.26 150.77 C 2030.52 155.71 2021.59 157.04 2013.54 155.30 C 2006.79 153.74 2001.52 148.26 1999.18 141.89 C 1996.54 134.88 1996.23 127.16 1997.23 119.80 C 1998.45 111.32 2003.20 102.92 2011.03 98.98 M 2011.86 107.85 C 2007.90 111.06 2005.89 116.06 2005.23 121.00 C 2014.31 120.99 2023.40 121.01 2032.49 120.99 C 2032.27 116.82 2031.67 112.36 2028.89 109.05 C 2024.85 104.01 2016.65 103.80 2011.86 107.85 Z" />
<path fill="#000000" opacity="1.00" d=" M 828.91 107.69 C 843.25 103.92 858.63 104.07 872.93 107.92 C 890.45 112.65 905.49 125.33 913.36 141.64 C 921.08 157.20 922.59 174.93 922.24 192.05 C 883.75 192.08 845.25 192.05 806.75 192.07 C 807.48 202.36 809.36 212.80 814.21 222.01 C 820.12 233.34 831.37 241.78 843.98 244.10 C 857.19 246.57 871.68 243.77 882.30 235.29 C 887.81 230.89 890.86 223.98 891.14 217.00 C 900.55 217.00 909.96 216.99 919.38 217.01 C 917.70 230.56 910.97 243.64 899.88 251.82 C 883.00 264.74 860.54 267.86 839.92 265.13 C 824.14 263.08 808.96 255.77 798.16 243.99 C 785.95 231.09 780.09 213.39 778.80 195.93 C 777.51 178.25 779.06 159.85 786.65 143.62 C 794.68 126.31 810.38 112.58 828.91 107.69 M 824.35 135.29 C 813.71 143.99 809.19 157.82 807.35 171.00 C 836.04 170.99 864.72 171.01 893.41 170.99 C 891.89 161.33 889.25 151.57 883.67 143.40 C 877.60 134.39 867.70 127.95 856.88 126.54 C 845.45 124.77 833.17 127.62 824.35 135.29 Z" />
<path fill="#000000" opacity="1.00" d=" M 1127.35 119.43 C 1139.06 109.34 1154.94 106.17 1169.95 105.23 C 1186.53 104.42 1203.95 105.37 1219.00 113.07 C 1225.19 116.16 1230.70 120.82 1234.05 126.95 C 1240.17 137.89 1241.33 150.76 1241.43 163.06 C 1241.45 196.06 1241.44 229.06 1241.43 262.06 C 1232.35 262.07 1223.27 262.07 1214.19 262.06 C 1214.16 256.84 1214.20 251.63 1214.17 246.42 C 1197.03 262.80 1171.88 268.45 1148.86 265.13 C 1135.11 263.06 1121.79 255.64 1114.23 243.76 C 1107.68 233.48 1106.97 220.44 1109.77 208.83 C 1112.08 199.27 1118.04 190.79 1125.95 185.00 C 1136.78 177.02 1150.01 173.15 1163.10 170.83 C 1179.95 167.83 1197.12 167.90 1214.17 168.00 C 1213.95 159.36 1214.21 150.54 1211.99 142.13 C 1208.81 132.47 1198.42 127.62 1188.93 126.72 C 1176.43 125.49 1162.88 125.32 1151.56 131.52 C 1144.12 135.49 1140.18 143.85 1139.90 152.05 C 1130.83 152.07 1121.75 152.07 1112.68 152.05 C 1113.34 139.90 1117.88 127.46 1127.35 119.43 M 1167.95 190.43 C 1157.67 192.51 1146.66 196.48 1140.55 205.57 C 1134.56 214.94 1134.52 229.08 1143.03 236.98 C 1150.84 243.96 1161.94 245.39 1172.02 244.84 C 1187.88 243.72 1203.80 236.30 1213.36 223.34 C 1214.49 222.14 1214.12 220.45 1214.21 218.96 C 1214.15 208.66 1214.20 198.37 1214.18 188.07 C 1198.76 188.19 1183.16 187.31 1167.95 190.43 Z" />
<path fill="#000000" opacity="1.00" d=" M 1330.34 109.38 C 1339.60 104.30 1350.62 104.23 1360.76 106.15 C 1360.72 115.35 1360.80 124.55 1360.72 133.75 C 1352.86 131.97 1344.60 131.43 1336.64 132.78 C 1325.96 134.89 1317.10 142.16 1310.69 150.67 C 1309.81 151.99 1308.34 153.19 1308.45 154.92 C 1308.42 190.63 1308.45 226.34 1308.43 262.06 C 1299.31 262.07 1290.18 262.07 1281.07 262.06 C 1281.05 211.04 1281.06 160.02 1281.06 109.01 C 1290.18 108.99 1299.31 109.00 1308.43 109.00 C 1308.43 116.05 1308.45 123.10 1308.42 130.14 C 1314.27 121.91 1321.21 114.05 1330.34 109.38 Z" />
<path fill="#000000" opacity="1.00" d=" M 1389.92 119.81 C 1401.90 109.20 1418.42 106.04 1433.93 105.17 C 1451.56 104.42 1470.36 105.69 1485.74 115.22 C 1492.94 119.48 1497.87 126.76 1500.49 134.60 C 1503.70 144.03 1504.42 154.08 1504.44 163.97 C 1504.44 196.67 1504.45 229.36 1504.43 262.06 C 1495.35 262.06 1486.27 262.09 1477.19 262.04 C 1477.17 256.83 1477.19 251.61 1477.17 246.40 C 1463.32 259.65 1444.02 266.03 1425.06 266.01 C 1410.30 266.46 1394.83 262.28 1383.97 251.88 C 1377.44 245.88 1372.99 237.66 1371.76 228.87 C 1369.91 215.86 1372.81 201.67 1381.71 191.68 C 1391.00 181.11 1404.62 175.68 1418.02 172.48 C 1437.37 167.89 1457.39 167.84 1477.17 168.00 C 1477.04 159.97 1477.05 151.87 1475.50 143.97 C 1473.75 135.61 1466.02 129.80 1458.05 127.90 C 1448.75 125.67 1439.02 125.64 1429.57 126.74 C 1421.65 127.85 1413.29 130.56 1408.11 137.00 C 1404.65 141.22 1403.28 146.71 1402.90 152.06 C 1393.83 152.07 1384.75 152.07 1375.68 152.05 C 1376.34 140.09 1380.72 127.85 1389.92 119.81 M 1426.34 191.48 C 1418.06 193.68 1409.61 197.40 1404.34 204.45 C 1397.07 214.35 1397.26 230.65 1407.67 238.34 C 1416.82 245.09 1428.97 245.75 1439.87 244.33 C 1454.39 241.98 1468.89 234.61 1477.11 222.08 C 1477.29 210.75 1477.13 199.40 1477.18 188.07 C 1460.21 188.17 1442.93 187.16 1426.34 191.48 Z" />
<path fill="#000000" opacity="1.00" d=" M 1571.44 127.88 C 1582.04 115.80 1596.57 106.18 1612.98 105.15 C 1624.15 104.53 1635.82 105.82 1645.83 111.13 C 1653.07 114.94 1658.93 121.15 1662.56 128.45 C 1667.60 138.49 1669.06 149.90 1669.13 161.01 C 1669.12 194.69 1669.14 228.37 1669.12 262.05 C 1659.99 262.07 1650.87 262.07 1641.76 262.05 C 1641.74 232.70 1641.75 203.34 1641.75 173.99 C 1641.62 162.85 1642.63 151.19 1638.22 140.67 C 1636.05 135.24 1631.47 130.88 1625.93 129.03 C 1616.45 125.84 1605.76 126.50 1596.75 130.84 C 1586.83 135.55 1578.59 143.20 1571.63 151.57 C 1571.18 188.36 1571.57 225.23 1571.43 262.05 C 1562.31 262.07 1553.18 262.07 1544.07 262.06 C 1544.05 211.04 1544.06 160.02 1544.06 109.01 C 1553.18 108.99 1562.31 109.00 1571.43 109.01 C 1571.44 115.30 1571.43 121.59 1571.44 127.88 Z" />
</g>
</svg>
