<?xml version="1.0" encoding="UTF-8"?>
<svg xmlns="http://www.w3.org/2000/svg" xmlns:xlink="http://www.w3.org/1999/xlink" width="16px" height="15px" viewBox="0 0 16 16" version="1.1">
<g id="surface1">
<path style=" stroke:none;fill-rule:nonzero;fill:rgb(10.588235%,59.607843%,72.941176%);fill-opacity:1;" d="M 7.886719 0.5625 C 8.804688 1.019531 9.675781 1.933594 9.625 3.050781 C 9.628906 3.75 9.621094 4.507812 9.222656 5.109375 C 8.488281 6.304688 7.734375 7.5 6.777344 8.519531 C 5.8125 9.695312 4.707031 10.785156 4 12.164062 C 3.699219 12.707031 3.664062 13.339844 3.597656 13.945312 C 2.625 13.546875 1.925781 12.542969 1.777344 11.488281 C 1.660156 10.03125 2.664062 8.867188 3.515625 7.828125 C 4.65625 6.390625 6.226562 5.363281 7.175781 3.757812 C 7.859375 2.855469 8.246094 1.691406 7.886719 0.5625 Z M 7.886719 0.5625 "/>
<path style=" stroke:none;fill-rule:nonzero;fill:rgb(10.588235%,59.607843%,72.941176%);fill-opacity:1;" d="M 10.089844 9.652344 C 11.09375 9.265625 12.308594 10.007812 12.429688 11.109375 C 12.617188 12.136719 11.785156 13.203125 10.765625 13.207031 C 9.816406 13.296875 8.921875 12.453125 8.902344 11.476562 C 8.839844 10.683594 9.359375 9.898438 10.089844 9.652344 Z M 10.089844 9.652344 "/>
</g>
</svg>
