<?xml version="1.0" encoding="UTF-8" ?>
<!DOCTYPE svg PUBLIC "-//W3C//DTD SVG 1.1//EN" "http://www.w3.org/Graphics/SVG/1.1/DTD/svg11.dtd">
<svg preserveAspectRatio="xMidYMid meet" width='512px' height='512px' viewBox="0 0 500 500" xmlns="http://www.w3.org/2000/svg">
 <defs>
     <linearGradient id="Gradient1" x1="0" x2="0" y1="0" y2="1">
        <stop class="stop1" offset="0%"/>
        <stop class="stop2" offset="50%"/>
        <stop class="stop3" offset="100%"/>
      </linearGradient>

      <style type="text/css"><![CDATA[
        .color123 { fill: url(#Gradient1); }
        .stop1 { stop-color: #fff}
        .stop2 { stop-color: #fff}
        .stop3 { stop-color: #fff}
        .dot1 { fill:#fff}
        .dot2bot { fill:#fff}
        *{background:#000397}
        @media (prefers-color-scheme: dark) {
            .stop1 { stop-color: #fff}
            .stop2 { stop-color: #fff}
            .stop3 { stop-color: #fff}
            .dot1 { fill:#fff}
            .dot2bot { fill:#fff}
            }
    ]]></style>
  </defs>
<g transform="matrix(.1 0 0 -.1 0 500)">
<path class='dot1' d="m3687 4973c-4-3-7-59-7-123 0-88 3-120 14-129 9-8 54-11 132-9l119 3 3 124c2 93-1 126-10 133-16 9-242 11-251 1z"/><path class='color123' d="m500 4375c0-14 30-257 70-565 60-455 84-635 110-832 17-119 30-222 30-228s27-10 65-10h65v-505-504l78-3 77-3v-45c0-33-4-45-15-45-12 0-15-23-18-137-2-133-2-138 18-138 16 0 20-7 20-35v-35h190 190v-130-130h205 205v200 200l-192 2-193 3-3 68c-2 55 0 67 13 67 11 0 15 12 15 50v50h64c63 0 65 1 68 28s4 27 81 30l78 3-2 549c-1 458-4 550-15 550-18 0-18 14 6 210 11 91 25 226 30 300 10 132 20 214 25 208 2-2 12-95 24-208s31-284 43-380c13-110 23-261 26-407l4-233h104 104v-41-40l-67 1c-38 1-74 1-80 1-10-1-13-28-13-101v-100h80c64 0 80-3 80-15 0-11-12-15-50-15h-50v-145-145h50c49 0 50-1 50-30s-1-30-50-30h-50l2-247 3-248 105-3c59-2 107-7 111-13 3-6 4-30 1-54-2-24-1-69 2-99l7-56h125 124v108c0 59 4 112 9 118 5 5 13 172 17 372l7 362h148 149v230 229l-152 3-153 3-3 38-3 37h195 196v151c0 141 1 151 19 156 24 6 23 2 61 293 17 129 42 312 56 405 13 94 27 190 30 215s10 82 16 128l10 82h349c192 0 349-2 349-5 0-8-60-151-298-715-112-267-206-491-209-497-4-9 6-13 32-13 44 0 46 13-37-184-33-77-91-217-129-309l-69-168v-169-170h-25-25v110 110h-230-230v-230-230h35c41 0 46-13 43-110l-3-65 98-3 97-3v91 91l63-3c54-3 62-5 62-23 0-17 8-21 55-25l55-5 5-135 5-135h140 140l3 138 3 138 62-3 62-3 3-162 2-163h-65-65v-85-85h90 89l3 78 3 77 158 3 157 3v-38c0-81 3-83 92-83h79l-3 83-3 82h-45-45l-3 117-3 118h296 295v180 180h-225-225v80 80h-250c-137 0-250 2-250 5s27 71 60 152c33 80 60 150 60 154 0 5-8 8-17 7-10-1-51 0-90 0l-73 2v55 54l117 3 118 3 58 140c33 77 68 158 78 181 26 57 24 64-16 64-19 0-35 2-35 4s23 57 51 122c28 66 62 148 75 182 24 62 153 364 158 370 2 1 124 3 272 5l269 2v65 65l-242 3-242 2 20 48c12 26 61 146 110 266l89 220 3 200 2 201-882 3c-770 2-883 0-883-13 0-8-11-119-25-247s-30-282-35-343c-5-60-20-216-34-345-13-129-32-316-40-415-9-99-19-197-22-217l-6-38h-107-108l-11 138c-6 75-18 225-27 332-8 107-28 364-45 570-16 206-33 420-37 475l-8 100h-330-330l-7-90c-4-49-16-200-27-335s-34-418-51-630-34-409-38-439l-7-53-64-2c-55-1-64 2-71 19-4 11-15 99-24 195-49 505-125 1256-132 1303l-6 37h-254c-218 0-254-2-254-15z"/><path class='dot2bot' d="m3760 1915v-75h70 70v75 75h-70-70z"/><path class='dot2bot' d="m858 1314c-2-25-1-47 1-50 2-2 23-4 46-4 41 0 43 1 48 36 9 53 1 64-48 64h-43z"/><path class='dot2bot' d="m1040 1125v-95h100 100v95 95h-100-100z"/><path class='dot2bot' d="m2800 1145c0-74 7-79 91-73l44 3 3 68 3 67h-71-70z"/><path class='dot2bot' d="m2502 883 3-118h115 115l3 118 3 117h-121-121z"/><path class='dot2bot' d="m1797 953c-4-3-7-60-7-125v-118h130 130v125 125h-123c-68 0-127-3-130-7z"/><path class='dot2bot' d="m2842 838 3-93 93-3 92-3v96 95h-95-96z"/><path class='dot2bot' d="m1100 695v-135h60c47 0 60-3 60-15 0-8-7-15-15-15-23 0-22-255 1-264s227-7 242 2c9 7 12 41 10 138l-3 129-42 3-43 3v145 144h-135-135z"/><path class='dot2bot' d="m3569 781c-1-3-2-25-3-48l-1-43h48 48l-3 47-3 46-42 2c-24 1-43-1-44-4z"/><path class='dot2bot' d="m3230 630v-50h50 50v50 50h-50-50z"/><path class='dot2bot' d="m2120 550v-70h70 70v70 70h-70-70z"/><path class='dot2bot' d="m3790 561v-58l60-2 60-2v61 60h-60-60z"/><path class='dot2bot' d="m1640 400c0-80 5-84 96-78l49 3 3 73 3 72h-76-75z"/><path class='dot2bot' d="m2440 302v-93l88 3 87 3v90 89l-87 1h-88z"/><path class='dot2bot' d="m3350 275v-55h55 55v39c0 64-6 71-61 71h-49z"/><path class='dot2bot' d="m3436 155c4-8 10-12 15-9 11 6 2 24-11 24-5 0-7-7-4-15z"/><path class='dot2bot' d="m3580 110c0-5 4-10 9-10 6 0 13 5 16 10 3 6-1 10-9 10-9 0-16-4-16-10z"/><path class='dot2bot' d="m3471 84c-24-31-27-50-7-57 22-9 57 42 45 65-13 23-14 23-38-8z"/></g></svg>